<svg id="color" xmlns="http://www.w3.org/2000/svg" xmlns:xlink="http://www.w3.org/1999/xlink" viewBox="0 0 16 16"><defs><style>.cls-1{fill:url(#linear-gradient);}.cls-2{fill:url(#linear-gradient-2);}.cls-3{fill:url(#linear-gradient-3);}.cls-4{fill:url(#linear-gradient-4);}.cls-5{fill:url(#linear-gradient-5);}</style><linearGradient id="linear-gradient" x1="2.41" y1="2.41" x2="13.93" y2="13.93" gradientUnits="userSpaceOnUse"><stop offset="0" stop-color="#91d443"/><stop offset="1" stop-color="#48bfe0"/></linearGradient><linearGradient id="linear-gradient-2" x1="5.28" y1="-0.46" x2="16.8" y2="11.07" xlink:href="#linear-gradient"/><linearGradient id="linear-gradient-3" x1="8.13" y1="-3.31" x2="19.65" y2="8.21" xlink:href="#linear-gradient"/><linearGradient id="linear-gradient-4" x1="-0.45" y1="5.28" x2="11.07" y2="16.8" xlink:href="#linear-gradient"/><linearGradient id="linear-gradient-5" x1="-3.31" y1="8.13" x2="8.21" y2="19.65" xlink:href="#linear-gradient"/></defs><title>color</title><path class="cls-1" d="M11.46,14a2,2,0,0,0,2,2H16V13.49a2,2,0,0,0-2-2h-.48a3.22,3.22,0,0,1-3.22-3.22V7.76a2,2,0,0,0-2-2H7.76A3.22,3.22,0,0,1,4.54,2.51h0V2a2,2,0,0,0-2-2H0V2.51a2,2,0,0,0,2,2h.48A3.22,3.22,0,0,1,5.73,7.76v.48a2,2,0,0,0,2,2h.48a3.22,3.22,0,0,1,3.22,3.22h0Z"/><path class="cls-2" d="M16,7.76a2,2,0,0,0-2-2h-.48a3.22,3.22,0,0,1-3.22-3.22V2a2,2,0,0,0-2-2H5.73V2.53a2,2,0,0,0,2,2h.48a3.22,3.22,0,0,1,3.22,3.22h0v.48a2,2,0,0,0,2,2H16Z"/><path class="cls-3" d="M16,2a2,2,0,0,0-1.95-2H11.42V2.53a2,2,0,0,0,2,2H16Z"/><path class="cls-4" d="M0,8.24a2,2,0,0,0,2,2h.48a3.22,3.22,0,0,1,3.22,3.22V14a2,2,0,0,0,2,2h2.51V13.46a2,2,0,0,0-2-2H7.76A3.22,3.22,0,0,1,4.54,8.24h0V7.76a2,2,0,0,0-2-2H0Z"/><path class="cls-5" d="M0,14A2,2,0,0,0,2,16H4.58V13.47a2,2,0,0,0-2-2H0Z"/></svg>