<svg xmlns="http://www.w3.org/2000/svg" xmlns:xlink="http://www.w3.org/1999/xlink" viewBox="0 0 450 98.2"><defs><style>.cls-1{fill:#fff;}.cls-2{fill:url(#linear-gradient);}.cls-3{fill:url(#linear-gradient-2);}.cls-4{fill:url(#linear-gradient-3);}.cls-5{fill:url(#linear-gradient-4);}.cls-6{fill:url(#linear-gradient-5);}</style><linearGradient id="linear-gradient" x1="14.8" y1="14.79" x2="85.51" y2="85.5" gradientUnits="userSpaceOnUse"><stop offset="0" stop-color="#91d443"/><stop offset="1" stop-color="#48bfe0"/></linearGradient><linearGradient id="linear-gradient-2" x1="32.38" y1="-2.79" x2="103.09" y2="67.92" xlink:href="#linear-gradient"/><linearGradient id="linear-gradient-3" x1="49.91" y1="-20.32" x2="120.61" y2="50.39" xlink:href="#linear-gradient"/><linearGradient id="linear-gradient-4" x1="-2.79" y1="32.38" x2="67.92" y2="103.09" xlink:href="#linear-gradient"/><linearGradient id="linear-gradient-5" x1="-20.31" y1="49.91" x2="50.39" y2="120.61" xlink:href="#linear-gradient"/></defs><title>color_white</title><g id="Layer_1" data-name="Layer 1"><path class="cls-1" d="M130.9,69.28q-4.93-5-4.93-13.14t5.06-13a16.8,16.8,0,0,1,12.05-4.86,13.26,13.26,0,0,1,11.27,5.91V25h7.36V73.75h-7.36V68.5q-4.07,5.78-11.89,5.78A15.73,15.73,0,0,1,130.9,69.28Zm2.43-12.84a11,11,0,0,0,3.22,8.18,10.45,10.45,0,0,0,7.56,3.15,9.75,9.75,0,0,0,7.36-3.19,11.4,11.4,0,0,0,3-8.18,12,12,0,0,0-3-8.34A9.61,9.61,0,0,0,144,44.72a10,10,0,0,0-7.55,3.35A11.74,11.74,0,0,0,133.33,56.44Z"/><path class="cls-1" d="M204.86,59.5H177.47A8,8,0,0,0,181,65.64,12.22,12.22,0,0,0,188.31,68q6.56,0,10-4.14l4.2,4.6q-5.65,5.85-14.71,5.85a17.51,17.51,0,0,1-12.51-4.89q-5.16-4.89-5.16-13.14t5.25-13.11a17.64,17.64,0,0,1,12.38-4.86,17.94,17.94,0,0,1,12.12,4.3q5,4.3,5,11.86Zm-27.39-5.78h20a8.43,8.43,0,0,0-2.76-6.77,10.09,10.09,0,0,0-6.8-2.36A11.64,11.64,0,0,0,180.69,47,8,8,0,0,0,177.47,53.72Z"/><path class="cls-1" d="M231.66,38.28a16.62,16.62,0,0,1,12,4.86q5,4.86,5,12.94t-5,13.14a15.7,15.7,0,0,1-11.56,5.06q-6.6,0-11.86-5.78v5.25h-7.36V25h7.36v19.9Q224.63,38.28,231.66,38.28Zm-11.5,18.06a11.41,11.41,0,0,0,3,8.18,9.76,9.76,0,0,0,7.36,3.19,10.44,10.44,0,0,0,7.55-3.15,10.94,10.94,0,0,0,3.22-8.18A11.63,11.63,0,0,0,238.17,48a10.06,10.06,0,0,0-7.56-3.32A9.65,9.65,0,0,0,223.19,48,11.88,11.88,0,0,0,220.17,56.34Z"/><path class="cls-1" d="M289.6,59.5H262.21a8,8,0,0,0,3.48,6.14A12.22,12.22,0,0,0,273,68q6.57,0,10-4.14l4.2,4.6q-5.65,5.85-14.71,5.85A17.51,17.51,0,0,1,260,69.38q-5.16-4.89-5.16-13.14t5.26-13.11a17.64,17.64,0,0,1,12.38-4.86,17.94,17.94,0,0,1,12.12,4.3q5,4.3,5,11.86Zm-27.39-5.78h20a8.42,8.42,0,0,0-2.76-6.77,10.09,10.09,0,0,0-6.8-2.36A11.63,11.63,0,0,0,265.42,47,8,8,0,0,0,262.21,53.72Z"/><path class="cls-1" d="M296.56,45.24V38.94h27.32v6.63L304.24,67.38h20.69v6.37H295.25V66.59l19.12-21.35Z"/><path class="cls-1" d="M333.67,31.84A4.6,4.6,0,1,1,337,33.22,4.48,4.48,0,0,1,333.67,31.84Zm6.9,41.91h-7.36V38.8h7.36Z"/><path class="cls-1" d="M375.64,57.72V38.8H383V73.75h-7.36V67.38a13.72,13.72,0,0,1-21.18,3.28q-3.65-3.61-3.65-10.44V38.8h7.36V58q0,9.65,8,9.66a9.62,9.62,0,0,0,6.63-2.53Q375.64,62.59,375.64,57.72Z"/><path class="cls-1" d="M401,54.83V73.75h-7.36V38.8H401v6.37a11.66,11.66,0,0,1,4.76-5.06,13.5,13.5,0,0,1,6.86-1.84q8.28,0,11.23,6.83,5.19-6.83,12.94-6.83a13,13,0,0,1,9.56,3.61Q450,45.51,450,52.34V73.75h-7.36V54.57q0-9.66-8-9.66a9.72,9.72,0,0,0-6.54,2.4,9.08,9.08,0,0,0-2.92,7V73.75h-7.36V54.57q0-5-1.77-7.33t-5.58-2.33a9.62,9.62,0,0,0-6.63,2.53Q401,50,401,54.83Z"/><path class="cls-2" d="M70.33,85.7A12.48,12.48,0,0,0,82.8,98.17H98.19V82.78A12.48,12.48,0,0,0,85.72,70.31H82.79A19.79,19.79,0,0,1,63,50.54V47.63A12.48,12.48,0,0,0,50.55,35.16H47.63A19.79,19.79,0,0,1,27.86,15.39h0V12.47A12.48,12.48,0,0,0,15.39,0H0V15.39A12.48,12.48,0,0,0,12.47,27.86H15.4A19.79,19.79,0,0,1,35.17,47.63v2.92A12.48,12.48,0,0,0,47.64,63h2.92A19.79,19.79,0,0,1,70.33,82.78h0Z"/><path class="cls-3" d="M98.19,47.62A12.48,12.48,0,0,0,85.72,35.15H82.79A19.79,19.79,0,0,1,63,15.38V12.47A12.48,12.48,0,0,0,50.55,0H35.17V15.56A12.48,12.48,0,0,0,47.63,27.85h2.93A19.79,19.79,0,0,1,70.33,47.62h0v2.92A12.48,12.48,0,0,0,82.76,63H98.19Z"/><path class="cls-4" d="M98.19,12.37A12.47,12.47,0,0,0,86.22,0H70.09V15.52A12.48,12.48,0,0,0,82.56,27.85H98.19Z"/><path class="cls-5" d="M0,50.57A12.48,12.48,0,0,0,12.48,63h2.93A19.79,19.79,0,0,1,35.17,82.81v2.92A12.48,12.48,0,0,0,47.64,98.19H63V82.63A12.48,12.48,0,0,0,50.57,70.34H47.64A19.79,19.79,0,0,1,27.87,50.57h0V47.65A12.48,12.48,0,0,0,15.44,35.18H0Z"/><path class="cls-6" d="M0,85.82A12.47,12.47,0,0,0,12,98.19H28.1V82.66A12.48,12.48,0,0,0,15.64,70.34H0Z"/></g></svg>